<?xml version="1.0" encoding="iso-8859-1"?>
<!-- Generator: Adobe Illustrator 19.0.0, SVG Export Plug-In . SVG Version: 6.00 Build 0)  -->
<svg version="1.1" id="Layer_1" xmlns="http://www.w3.org/2000/svg" xmlns:xlink="http://www.w3.org/1999/xlink" x="0px" y="0px"
	 viewBox="0 0 512 512" style="enable-background:new 0 0 512 512;" xml:space="preserve">
<circle style="fill:#273B7A;" cx="256" cy="256" r="256"/>
<path style="fill:#121149;" d="M511.983,254.655l-87.24-87.238L130.563,334.498l173.063,173.061C422.25,485.238,512,381.107,512,256
	C512,255.55,511.984,255.105,511.983,254.655z"/>
<path style="fill:#898989;" d="M172.006,229.976c14.426-15.703,11.18-39.264-7.252-52.624
	c-12.743-9.238-47.971-12.131-68.499-13.036c-7.964-0.352-13.838,6.041-11.854,12.902c5.115,17.684,15.369,82.242,28.112,91.479
	C130.944,282.057,157.58,245.679,172.006,229.976z"/>
<path style="fill:#69696B;" d="M339.994,229.976c-14.426-15.703-11.18-39.264,7.252-52.624
	c12.743-9.238,47.971-12.131,68.499-13.036c7.964-0.352,13.838,6.041,11.854,12.902c-5.115,17.684-15.369,82.242-28.112,91.479
	C381.056,282.057,354.419,245.679,339.994,229.976z"/>
<path style="fill:#DBDBDD;" d="M404.692,274.037c0,69.965-66.572,100.823-148.692,100.823s-148.692-30.858-148.692-100.823
	S173.88,147.003,256,147.003S404.692,204.071,404.692,274.037z"/>
<path style="fill:#C1C1C1;" d="M404.692,274.035c0-69.965-66.572-127.035-148.69-127.035v227.857
	C338.12,374.858,404.692,344.002,404.692,274.035z"/>
<g>
	<circle style="fill:#121149;" cx="197.749" cy="277.256" r="10.378"/>
	<circle style="fill:#121149;" cx="314.251" cy="277.256" r="10.378"/>
</g>
<path style="fill:#263A7A;" d="M267.779,345.031h-5.996v-27.405c0-3.194-2.591-5.784-5.784-5.784s-5.784,2.591-5.784,5.784v27.405
	h-5.996c-3.194,0-5.784,2.589-5.784,5.784c0,3.194,2.591,5.784,5.784,5.784h23.559c3.194,0,5.784-2.589,5.784-5.784
	C273.563,347.62,270.974,345.031,267.779,345.031z"/>
<path style="fill:#121149;" d="M267.779,345.031h-5.996v-27.405c0-3.194-2.591-5.784-5.784-5.784v44.76h11.779
	c3.194,0,5.784-2.589,5.784-5.784C273.563,347.624,270.974,345.031,267.779,345.031z"/>
<path style="fill:#69696B;" d="M299.322,206.977l29.349-43.718c-8.442-4.058-17.387-7.43-26.745-10.031l-12.222,48.919
	C288.158,208.334,295.826,212.185,299.322,206.977z"/>
<g>
	<path style="fill:#898989;" d="M211.361,206.977c3.498,5.208,11.164,1.357,9.618-4.832l-12.135-48.562
		c-9.278,2.657-18.144,6.072-26.507,10.164L211.361,206.977z"/>
	<path style="fill:#898989;" d="M262.337,227.628l13.598-79.453c-6.525-0.75-13.171-1.174-19.935-1.174
		c-7.215,0-14.3,0.465-21.239,1.315l13.574,79.312C249.754,235.925,260.917,235.925,262.337,227.628z"/>
</g>
<path style="fill:#69696B;" d="M256,147.001v86.793c2.912-0.272,5.677-2.312,6.337-6.166l13.598-79.453
	C269.41,147.425,262.765,147.001,256,147.001z"/>
<path style="fill:#121149;" d="M245.031,318.64l-11.242-14.462c-5.56-7.151,0.669-16.543,10.969-16.543h22.485
	c10.3,0,16.529,9.392,10.969,16.543l-11.242,14.462C261.842,325.236,250.158,325.236,245.031,318.64z"/>
<path style="fill:#0C0C42;" d="M267.242,287.637H256v35.95c4.203,0,8.406-1.648,10.969-4.946l11.242-14.462
	C283.77,297.027,277.544,287.637,267.242,287.637z"/>
<g>
</g>
<g>
</g>
<g>
</g>
<g>
</g>
<g>
</g>
<g>
</g>
<g>
</g>
<g>
</g>
<g>
</g>
<g>
</g>
<g>
</g>
<g>
</g>
<g>
</g>
<g>
</g>
<g>
</g>
</svg>
